<?xml version="1.0" encoding="UTF-8" standalone="no"?>
<!-- Created with Inkscape (http://www.inkscape.org/) -->

<svg
   xmlns:dc="http://purl.org/dc/elements/1.1/"
   xmlns:cc="http://creativecommons.org/ns#"
   xmlns:rdf="http://www.w3.org/1999/02/22-rdf-syntax-ns#"
   xmlns:svg="http://www.w3.org/2000/svg"
   xmlns="http://www.w3.org/2000/svg"
   xmlns:sodipodi="http://sodipodi.sourceforge.net/DTD/sodipodi-0.dtd"
   xmlns:inkscape="http://www.inkscape.org/namespaces/inkscape"
   version="1.1"
   width="32"
   height="32"
   id="svg13825"
   inkscape:version="0.48.3.1 r9886"
   sodipodi:docname="back10.svg">
  <sodipodi:namedview
     pagecolor="#ffffff"
     bordercolor="#666666"
     borderopacity="1"
     objecttolerance="10"
     gridtolerance="10"
     guidetolerance="10"
     inkscape:pageopacity="0"
     inkscape:pageshadow="2"
     inkscape:window-width="1920"
     inkscape:window-height="1028"
     id="namedview3147"
     showgrid="false"
     inkscape:zoom="14.43757"
     inkscape:cx="24.40678"
     inkscape:cy="23.084746"
     inkscape:window-x="0"
     inkscape:window-y="0"
     inkscape:window-maximized="1"
     inkscape:current-layer="svg13825" />
  <defs
     id="defs13827" />
  <metadata
     id="metadata13830">
    <rdf:RDF>
      <cc:Work
         rdf:about="">
        <dc:format>image/svg+xml</dc:format>
        <dc:type
           rdf:resource="http://purl.org/dc/dcmitype/StillImage" />
        <dc:title />
      </cc:Work>
    </rdf:RDF>
  </metadata>
  <g
     transform="matrix(0.66666667,0,0,0.66666667,0,-669.5748)"
     id="layer1">
    <g
       id="text13833"
       style="font-size:40px;font-style:normal;font-weight:normal;line-height:125%;letter-spacing:0px;word-spacing:0px;fill:#000000;fill-opacity:1;stroke:none;font-family:Sans">
      <path
         inkscape:connector-curvature="0"
         d="m 44,1037.267 -34.8571421,0 5.6666661,-6.8572 -1.47619,-1.5714 -9.3333341,9.7142 9.3333341,9.8096 1.47619,-1.5714 -5.6666661,-6.8572 34.8571421,0 0,-2.6666"
         id="path13838"
         style="font-variant:normal;font-stretch:normal;fill:#333333;font-family:FreeSerif;-inkscape-font-specification:FreeSerif" />
      <g
         transform="translate(-29.028809,0)"
         id="g13854"
         style="fill:#333333">
        <path
           inkscape:connector-curvature="0"
           d="m 40.710645,1013.2372 c 0.949997,-0.3667 1.874996,-0.8333 2.775,-1.4 0.899994,-0.5833 1.724993,-1.3083 2.475,-2.175 l 1.65,0 0,17.325 -2.325,0 0,-14.1 c -0.200007,0.1833 -0.450007,0.375 -0.75,0.575 -0.283339,0.2 -0.600006,0.3917 -0.95,0.575 -0.333338,0.1833 -0.691671,0.3583 -1.075,0.525 -0.366671,0.1667 -0.725003,0.3083 -1.075,0.425 l -0.725,-1.75"
           id="path13847"
           style="font-size:25px;font-variant:normal;font-stretch:normal;fill:#333333;font-family:Ubuntu;-inkscape-font-specification:Ubuntu" />
        <path
           inkscape:connector-curvature="0"
           d="m 53.746973,1018.3122 c -10e-7,-2.9 0.508332,-5.1333 1.525,-6.7 1.03333,-1.5667 2.458328,-2.35 4.275,-2.35 1.816658,0 3.233323,0.7833 4.25,2.35 1.033321,1.5667 1.549987,3.8 1.55,6.7 -1.3e-5,2.9 -0.516679,5.1333 -1.55,6.7 -1.016677,1.5666 -2.433342,2.35 -4.25,2.35 -1.816672,0 -3.24167,-0.7834 -4.275,-2.35 -1.016668,-1.5667 -1.525001,-3.8 -1.525,-6.7 m 9.15,0 c -1e-5,-0.95 -0.05834,-1.85 -0.175,-2.7 -0.10001,-0.85 -0.283343,-1.5917 -0.55,-2.225 -0.250009,-0.6333 -0.591676,-1.1333 -1.025,-1.5 -0.433342,-0.3833 -0.966674,-0.575 -1.6,-0.575 -0.63334,0 -1.166673,0.1917 -1.6,0.575 -0.433338,0.3667 -0.783338,0.8667 -1.05,1.5 -0.250004,0.6333 -0.433337,1.375 -0.55,2.225 -0.100004,0.85 -0.150004,1.75 -0.15,2.7 -4e-6,0.95 0.05,1.85 0.15,2.7 0.116663,0.85 0.299996,1.5917 0.55,2.225 0.266662,0.6333 0.616662,1.1417 1.05,1.525 0.433327,0.3667 0.96666,0.55 1.6,0.55 0.633326,0 1.166658,-0.1833 1.6,-0.55 0.433324,-0.3833 0.774991,-0.8917 1.025,-1.525 0.266657,-0.6333 0.44999,-1.375 0.55,-2.225 0.116656,-0.85 0.17499,-1.75 0.175,-2.7"
           id="path13849"
           style="font-size:25px;font-variant:normal;font-stretch:normal;fill:#333333;font-family:Ubuntu;-inkscape-font-specification:Ubuntu" />
      </g>
    </g>
  </g>
</svg>
