<?xml version="1.0" encoding="UTF-8" standalone="no"?>
<!-- Created with Inkscape (http://www.inkscape.org/) -->

<svg
   xmlns:dc="http://purl.org/dc/elements/1.1/"
   xmlns:cc="http://creativecommons.org/ns#"
   xmlns:rdf="http://www.w3.org/1999/02/22-rdf-syntax-ns#"
   xmlns:svg="http://www.w3.org/2000/svg"
   xmlns="http://www.w3.org/2000/svg"
   xmlns:sodipodi="http://sodipodi.sourceforge.net/DTD/sodipodi-0.dtd"
   xmlns:inkscape="http://www.inkscape.org/namespaces/inkscape"
   version="1.1"
   width="32"
   height="32"
   id="svg13825"
   inkscape:version="0.48.3.1 r9886"
   sodipodi:docname="back5.svg">
  <sodipodi:namedview
     pagecolor="#ffffff"
     bordercolor="#666666"
     borderopacity="1"
     objecttolerance="10"
     gridtolerance="10"
     guidetolerance="10"
     inkscape:pageopacity="0"
     inkscape:pageshadow="2"
     inkscape:window-width="1920"
     inkscape:window-height="1028"
     id="namedview13975"
     showgrid="false"
     inkscape:zoom="13.906433"
     inkscape:cx="22.48972"
     inkscape:cy="17.396119"
     inkscape:window-x="0"
     inkscape:window-y="0"
     inkscape:window-maximized="1"
     inkscape:current-layer="svg13825" />
  <defs
     id="defs13827" />
  <metadata
     id="metadata13830">
    <rdf:RDF>
      <cc:Work
         rdf:about="">
        <dc:format>image/svg+xml</dc:format>
        <dc:type
           rdf:resource="http://purl.org/dc/dcmitype/StillImage" />
        <dc:title />
      </cc:Work>
    </rdf:RDF>
  </metadata>
  <g
     transform="matrix(0.66666667,0,0,0.66666667,0,-669.5748)"
     id="layer1">
    <g
       id="text13833"
       style="font-size:40px;font-style:normal;font-weight:normal;line-height:125%;letter-spacing:0px;word-spacing:0px;fill:#000000;fill-opacity:1;stroke:none;font-family:Sans">
      <path
         inkscape:connector-curvature="0"
         d="m 44,1037.267 -34.8571421,0 5.6666661,-6.8572 -1.47619,-1.5714 -9.3333341,9.7142 9.3333341,9.8096 1.47619,-1.5714 -5.6666661,-6.8572 34.8571421,0 0,-2.6666"
         id="path13838"
         style="font-variant:normal;font-stretch:normal;fill:#333333;font-family:FreeSerif;-inkscape-font-specification:FreeSerif" />
      <path
         inkscape:connector-curvature="0"
         d="m 22.025,1016.3372 c 2.516659,0.1 4.358324,0.65 5.525,1.65 1.183322,1 1.774988,2.3583 1.775,4.075 -1.2e-5,0.7667 -0.133345,1.475 -0.4,2.125 -0.250012,0.65 -0.641678,1.2083 -1.175,1.675 -0.516677,0.4666 -1.175009,0.8333 -1.975,1.1 -0.800008,0.2666 -1.750007,0.4 -2.85,0.4 -0.433339,0 -0.875005,-0.033 -1.325,-0.1 -0.450004,-0.067 -0.86667,-0.15 -1.25,-0.25 -0.383336,-0.1 -0.725003,-0.2 -1.025,-0.3 -0.300002,-0.1 -0.516668,-0.1834 -0.65,-0.25 l 0.45,-2.025 c 0.283331,0.1333 0.741664,0.3083 1.375,0.525 0.649996,0.2167 1.441662,0.325 2.375,0.325 0.749993,0 1.374993,-0.083 1.875,-0.25 0.516658,-0.1667 0.933325,-0.3917 1.25,-0.675 0.316657,-0.2833 0.541657,-0.6083 0.675,-0.975 0.14999,-0.3833 0.22499,-0.7833 0.225,-1.2 -10e-6,-0.6333 -0.108343,-1.1917 -0.325,-1.675 -0.216676,-0.5 -0.600009,-0.9167 -1.15,-1.25 -0.550008,-0.3333 -1.28334,-0.5833 -2.2,-0.75 -0.916672,-0.1833 -2.075004,-0.275 -3.475,-0.275 0.1,-0.8167 0.174997,-1.5833 0.225,-2.3 0.06666,-0.7167 0.124997,-1.4167 0.175,-2.1 0.05,-0.6833 0.09166,-1.3583 0.125,-2.025 0.03333,-0.6833 0.06666,-1.4 0.1,-2.15 l 8.35,0 0,1.975 -6.325,0 c -0.01667,0.25 -0.04167,0.5917 -0.075,1.025 -0.03334,0.4167 -0.06667,0.8583 -0.1,1.325 -0.03334,0.45 -0.06667,0.8917 -0.1,1.325 -0.03334,0.4333 -0.06667,0.775 -0.1,1.025"
         id="path13845"
         style="font-size:25px;font-variant:normal;font-stretch:normal;fill:#333333;font-family:Ubuntu;-inkscape-font-specification:Ubuntu" />
    </g>
  </g>
</svg>
