<?xml version="1.0" encoding="UTF-8" standalone="no"?>
<!-- Created with Inkscape (http://www.inkscape.org/) -->

<svg
   xmlns:dc="http://purl.org/dc/elements/1.1/"
   xmlns:cc="http://creativecommons.org/ns#"
   xmlns:rdf="http://www.w3.org/1999/02/22-rdf-syntax-ns#"
   xmlns:svg="http://www.w3.org/2000/svg"
   xmlns="http://www.w3.org/2000/svg"
   xmlns:xlink="http://www.w3.org/1999/xlink"
   xmlns:sodipodi="http://sodipodi.sourceforge.net/DTD/sodipodi-0.dtd"
   xmlns:inkscape="http://www.inkscape.org/namespaces/inkscape"
   width="48"
   height="48"
   id="svg3088"
   version="1.1"
   inkscape:version="0.48.3.1 r9886"
   sodipodi:docname="OpenScribe.svg">
  <defs
     id="defs3090">
    <linearGradient
       id="linearGradient4187">
      <stop
         style="stop-color:#c80000;stop-opacity:1;"
         offset="0"
         id="stop4189" />
      <stop
         id="stop4195"
         offset="0.5"
         style="stop-color:#ff4545;stop-opacity:1;" />
      <stop
         style="stop-color:#c80000;stop-opacity:1;"
         offset="1"
         id="stop4191" />
    </linearGradient>
    <linearGradient
       id="linearGradient3972">
      <stop
         style="stop-color:#bdbdee;stop-opacity:1;"
         offset="0"
         id="stop3974" />
      <stop
         style="stop-color:#3535ca;stop-opacity:1;"
         offset="1"
         id="stop3976" />
    </linearGradient>
    <linearGradient
       inkscape:collect="always"
       xlink:href="#linearGradient3058"
       id="linearGradient3064"
       x1="214.65842"
       y1="195.23438"
       x2="214.65842"
       y2="45.234375"
       gradientUnits="userSpaceOnUse"
       gradientTransform="translate(-2.8634551,3.917625)" />
    <linearGradient
       id="linearGradient3058">
      <stop
         style="stop-color:#c89600;stop-opacity:1;"
         offset="0"
         id="stop3060" />
      <stop
         id="stop3066"
         offset="0.5"
         style="stop-color:#c80000;stop-opacity:1;" />
      <stop
         style="stop-color:#c89600;stop-opacity:1;"
         offset="1"
         id="stop3062" />
    </linearGradient>
    <radialGradient
       inkscape:collect="always"
       xlink:href="#linearGradient3972"
       id="radialGradient3978"
       cx="-8.5473709"
       cy="53.956013"
       fx="-8.5473709"
       fy="53.956013"
       r="3.2847717"
       gradientUnits="userSpaceOnUse"
       gradientTransform="matrix(1.5704984,0.90672767,-0.50000439,0.86602287,31.466046,15.272345)" />
    <radialGradient
       id="radialGradient2540"
       xlink:href="#linearGradient4617"
       gradientUnits="userSpaceOnUse"
       cy="389.14999"
       cx="428.32001"
       gradientTransform="matrix(0.59695,0.35268,-1.0603,1.7946,641.19,-509.59)"
       r="154.31" />
    <linearGradient
       id="linearGradient4617">
      <stop
         id="stop4619"
         style="stop-color:#5d5d5d;stop-opacity:1;"
         offset="0" />
      <stop
         id="stop4621"
         style="stop-color:#c8c8c8;stop-opacity:1;"
         offset="1" />
    </linearGradient>
    <radialGradient
       id="radialGradient2542"
       xlink:href="#linearGradient4617"
       gradientUnits="userSpaceOnUse"
       cy="390.70001"
       cx="450.20999"
       gradientTransform="matrix(0.32047,0.20208,-1.0452,1.6576,737.89,-389.45)"
       r="167.03999" />
    <linearGradient
       id="linearGradient4087">
      <stop
         id="stop4089"
         style="stop-color:#b93c01"
         offset="0" />
      <stop
         id="stop4091"
         style="stop-color:#ffa84b;stop-opacity:.67308"
         offset="1" />
    </linearGradient>
    <linearGradient
       id="linearGradient2544"
       y2="141.2"
       gradientUnits="userSpaceOnUse"
       x2="580.79999"
       gradientTransform="translate(55.948,-49.288)"
       y1="859.21002"
       x1="165.17999">
      <stop
         id="stop4678"
         style="stop-color:#2a291b"
         offset="0" />
      <stop
         id="stop4686"
         style="stop-color:#414027"
         offset=".044215" />
      <stop
         id="stop4680"
         style="stop-color:#e7e3a5"
         offset=".15159" />
      <stop
         id="stop4682"
         style="stop-color:#ffffd9"
         offset="1" />
    </linearGradient>
    <linearGradient
       id="linearGradient2546"
       y2="450.92001"
       gradientUnits="userSpaceOnUse"
       x2="310.38"
       y1="520.19"
       x1="428.94">
      <stop
         id="stop3429"
         style="stop-color:#414027"
         offset="0" />
      <stop
         id="stop3431"
         style="stop-color:#e7e3a5"
         offset=".39397" />
      <stop
         id="stop3433"
         style="stop-color:#ffffd9"
         offset="1" />
    </linearGradient>
    <radialGradient
       inkscape:collect="always"
       xlink:href="#linearGradient4617"
       id="radialGradient4171"
       gradientUnits="userSpaceOnUse"
       gradientTransform="matrix(0.59695,0.35268,-1.0603,1.7946,641.19,-509.59)"
       cx="428.32001"
       cy="389.14999"
       r="154.31" />
    <radialGradient
       inkscape:collect="always"
       xlink:href="#linearGradient4617"
       id="radialGradient4173"
       gradientUnits="userSpaceOnUse"
       gradientTransform="matrix(0.32047,0.20208,-1.0452,1.6576,737.89,-389.45)"
       cx="450.20999"
       cy="390.70001"
       r="167.03999" />
    <linearGradient
       inkscape:collect="always"
       xlink:href="#linearGradient2544"
       id="linearGradient4175"
       gradientUnits="userSpaceOnUse"
       gradientTransform="translate(55.948,-49.288)"
       x1="165.17999"
       y1="859.21002"
       x2="580.79999"
       y2="141.2" />
    <linearGradient
       inkscape:collect="always"
       xlink:href="#linearGradient2546"
       id="linearGradient4177"
       gradientUnits="userSpaceOnUse"
       x1="428.94"
       y1="520.19"
       x2="310.38"
       y2="450.92001" />
    <linearGradient
       inkscape:collect="always"
       xlink:href="#linearGradient4187"
       id="linearGradient4193"
       x1="26.17968"
       y1="36.918396"
       x2="26.17968"
       y2="11.319001"
       gradientUnits="userSpaceOnUse" />
  </defs>
  <sodipodi:namedview
     id="base"
     pagecolor="#ffffff"
     bordercolor="#666666"
     borderopacity="1.0"
     inkscape:pageopacity="0.0"
     inkscape:pageshadow="2"
     inkscape:zoom="16.865583"
     inkscape:cx="24.750572"
     inkscape:cy="23.880435"
     inkscape:document-units="px"
     inkscape:current-layer="layer1"
     showgrid="false"
     inkscape:snap-grids="false"
     inkscape:window-width="1920"
     inkscape:window-height="1031"
     inkscape:window-x="0"
     inkscape:window-y="0"
     inkscape:window-maximized="1">
    <inkscape:grid
       type="xygrid"
       id="grid3096"
       empspacing="2"
       visible="true"
       enabled="true"
       snapvisiblegridlinesonly="true"
       spacingx="8px"
       spacingy="8px" />
  </sodipodi:namedview>
  <metadata
     id="metadata3093">
    <rdf:RDF>
      <cc:Work
         rdf:about="">
        <dc:format>image/svg+xml</dc:format>
        <dc:type
           rdf:resource="http://purl.org/dc/dcmitype/StillImage" />
        <dc:title></dc:title>
      </cc:Work>
    </rdf:RDF>
  </metadata>
  <g
     inkscape:label="Layer 1"
     inkscape:groupmode="layer"
     id="layer1"
     transform="translate(0,-1004.3622)">
    <path
       sodipodi:type="arc"
       style="fill:url(#radialGradient3978);stroke:none;fill-opacity:1"
       id="path3970"
       sodipodi:cx="-7.9180288"
       sodipodi:cy="55.364803"
       sodipodi:rx="3.2847717"
       sodipodi:ry="3.2847717"
       d="m -4.6332572,55.364803 a 3.2847717,3.2847717 0 1 1 -6.5695438,0 3.2847717,3.2847717 0 1 1 6.5695438,0 z"
       transform="matrix(7.0020087,0,0,7.0020087,79.442107,640.69737)" />
    <path
       style="fill:url(#linearGradient4193);fill-opacity:1"
       d="M 23.3125 11.1875 C 23.25149 14.995911 23.216832 16.930977 23.15625 20.75 C 22.97183 21.1215 22.87169 21.3161 22.6875 21.6875 C 22.6258 21.8103 22.59271 21.8757 22.53125 22 C 22.47005 21.8756 22.43658 21.8105 22.375 21.6875 L 22.375 20.75 C 22.25166 19.3939 22.21592 18.7275 22.09375 17.375 L 22.09375 18 C 22.03235 18.1244 21.99747 18.1885 21.9375 18.3125 C 21.81486 17.2066 21.74715 16.63395 21.625 15.53125 L 21.625 19.53125 C 21.50189 20.02585 21.43501 20.28765 21.3125 20.78125 L 21.15625 20.78125 C 21.09505 20.65925 21.06198 20.59035 21 20.46875 L 21 18.9375 C 20.87854 18.5729 20.80978 18.39365 20.6875 18.03125 C 20.56498 17.30105 20.52889 16.94545 20.40625 16.21875 L 20.40625 20.46875 C 20.16216 21.08535 20.02358 21.3884 19.78125 22 C 19.65873 21.5161 19.59068 21.2946 19.46875 20.8125 C 19.2256 18.6346 19.11768 17.55865 18.875 15.40625 L 18.875 16.3125 C 18.8153 17.4029 18.77875 17.94405 18.71875 19.03125 C 18.59752 19.88095 18.52771 20.31165 18.40625 21.15625 C 18.28502 20.67985 18.24528 20.4106 18.125 19.9375 C 18.00413 19.7034 17.93361 19.6066 17.8125 19.375 L 17.8125 14.90625 C 17.6323 14.09125 17.55555 13.68 17.375 12.875 L 17.375 13.15625 C 17.315 15.29975 17.27818 16.39565 17.21875 18.53125 C 17.15835 18.41685 17.1225 18.3636 17.0625 18.25 C 17.0028 18.3734 16.96665 18.40855 16.90625 18.53125 L 16.90625 19.71875 C 16.78643 20.07975 16.74388 20.2672 16.625 20.625 C 16.5653 20.5106 16.52735 20.45825 16.46875 20.34375 L 16.46875 19.46875 C 16.414171 16.782244 16.362935 15.226807 16.3125 12.75 C 16.19374 15.6926 16.14954 17.147 16.03125 20.0625 C 15.91214 19.8373 15.83727 19.7226 15.71875 19.5 C 15.54137 18.0091 15.45804 17.2797 15.28125 15.8125 L 15.28125 16.65625 C 15.22205 18.27145 15.21587 19.0794 15.15625 20.6875 C 14.92178 21.5032 14.79661 21.92005 14.5625 22.71875 C 14.5047 22.60685 14.46451 22.5486 14.40625 22.4375 L 14.40625 19.0625 C 14.28867 18.8485 14.24059 18.74165 14.125 18.53125 L 14.125 18.8125 C 14.0663 18.9304 14.02661 18.97545 13.96875 19.09375 C 13.91085 18.98755 13.90161 18.94915 13.84375 18.84375 C 13.72816 17.40725 13.6466 16.69845 13.53125 15.28125 L 13.53125 16.09375 C 13.4159 18.88525 13.36418 20.27765 13.25 23.03125 C 13.1927 22.92225 13.18189 22.8578 13.125 22.75 C 13.0679 20.9971 13.02588 20.14625 12.96875 18.40625 C 12.74074 17.45505 12.63284 16.9825 12.40625 16.0625 C 12.29196 18.348 12.23836 19.46825 12.125 21.71875 C 12.0688 21.61545 12.02494 21.57065 11.96875 21.46875 C 11.80006 21.58745 11.73048 21.6328 11.5625 21.75 C 11.39524 18.3983 11.29204 16.7622 11.125 13.5 C 11.0702 13.6223 11.05582 13.6907 11 13.8125 L 11 21.8125 C 10.88888 22.1302 10.82799 22.28175 10.71875 22.59375 C 10.66255 22.49375 10.64943 22.44245 10.59375 22.34375 L 10.59375 21.5625 C 10.53945 20.9566 10.49223 20.6626 10.4375 20.0625 C 10.27375 20.1865 10.19394 20.2534 10.03125 20.375 C 9.86867 20.0972 9.78545 19.9549 9.625 19.6875 L 9.625 18.96875 C 9.46242 19.09915 9.37851 19.15345 9.21875 19.28125 C 9.05818 17.28105 9.0028 16.3047 8.84375 14.375 L 8.84375 15.09375 C 8.79115 15.77965 8.74034 16.10245 8.6875 16.78125 C 8.58166 15.86975 8.54263 15.41875 8.4375 14.53125 L 8.4375 18.5 C 8.33237 18.8999 8.29181 19.1082 8.1875 19.5 C 8.136 19.511 8.0848 19.51925 8.03125 19.53125 L 8.03125 19.96875 C 7.97945 20.07065 7.95843 20.1489 7.90625 20.25 C 7.85445 20.169 7.83342 20.11125 7.78125 20.03125 L 7.78125 17.78125 C 7.67858 17.45235 7.63333 17.28825 7.53125 16.96875 L 7.53125 18.0625 C 7.42858 20.5059 7.3831 21.71615 7.28125 24.09375 L 7.03125 24.09375 C 6.82898 22.44285 6.72894 21.64645 6.53125 20.09375 C 6.43117 20.45475 6.37945 20.6489 6.28125 21 C 6.13359 19.7845 6.05284 19.18585 5.90625 18.03125 L 5.90625 20.84375 C 5.80895 21.51315 5.75234 21.8529 5.65625 22.5 C 5.60795 22.426 5.57919 22.385 5.53125 22.3125 L 5.53125 20.34375 C 5.43555 20.36875 5.40764 20.38125 5.3125 20.40625 C 5.2178 19.73525 5.15717 19.396 5.0625 18.75 C 4.9689 20.5396 4.93702 21.43205 4.84375 23.15625 C 4.75045 22.56515 4.68632 22.28605 4.59375 21.71875 L 4.59375 22.25 C 4.54755 22.4033 4.51411 22.4748 4.46875 22.625 C 4.42225 22.558 4.4205 22.53395 4.375 22.46875 L 4.375 20.84375 C 4.2835 20.72665 4.21626 20.6738 4.125 20.5625 L 4.125 19.6875 C 4.0336 19.0921 3.99565 18.8162 3.90625 18.25 C 3.81555 20.4318 3.77619 21.4759 3.6875 23.5625 C 3.5985 22.8946 3.55744 22.5741 3.46875 21.9375 C 3.38075 22.0884 3.33716 22.1671 3.25 22.3125 C 3.2063 22.2565 3.16861 22.2413 3.125 22.1875 L 3.125 21.53125 C 2.99461 21.31585 2.93972 21.22675 2.8125 21.03125 C 2.7275 19.78635 2.67774 19.1748 2.59375 18 C 2.55155 19.9856 2.54145 20.97525 2.5 22.90625 C 2.4582 22.85425 2.44704 22.83175 2.40625 22.78125 C 2.32225 21.12845 2.2689 20.3034 2.1875 18.75 C 2.1061 18.6461 2.05015 18.62315 1.96875 18.53125 L 1.96875 20.8125 C 1.88725 21.2858 1.8616 21.52315 1.78125 21.96875 C 1.66085 21.85305 1.58739 21.7877 1.46875 21.6875 L 1.46875 20.8125 C 1.426008 20.430227 1.4068859 20.181304 1.375 19.90625 C 1.3224701 20.197844 1.2601759 20.485947 1.21875 20.78125 C 1.1789428 21.820053 1.144658 22.799028 1.09375 24.0625 L 1 24.0625 C 1.0001946 24.135527 0.99912623 24.208385 1 24.28125 C 1.0284664 24.249067 1.0574621 24.229825 1.09375 24.1875 C 1.13205 24.2345 1.1489 24.23115 1.1875 24.28125 L 1.1875 25.8125 C 1.234342 26.570213 1.2764524 27.176218 1.3125 27.78125 C 1.3474501 27.9921 1.3968553 28.197378 1.4375 28.40625 C 1.485609 27.867718 1.5336551 27.420643 1.59375 26.71875 C 1.67265 26.90865 1.70184 27.01975 1.78125 27.21875 C 1.82165 27.18775 1.835 27.158 1.875 27.125 C 1.9561 28.1236 2.01164 28.6277 2.09375 29.6875 C 2.17485 28.5504 2.19785 27.9631 2.28125 26.75 C 2.36345 25.9901 2.41589 25.6195 2.5 24.8125 C 2.5415 24.8765 2.5516 24.90395 2.59375 24.96875 C 2.6320686 26.871481 2.6821622 27.977311 2.71875 29.78125 C 2.76045 29.39345 2.76965 29.18065 2.8125 28.78125 C 2.855 28.80625 2.89414 28.81775 2.9375 28.84375 L 2.9375 28.375 C 2.9799 28.2746 2.9879 28.2291 3.03125 28.125 C 3.11705 27.5441 3.16215 27.2391 3.25 26.625 C 3.3368 26.8441 3.38077 26.9601 3.46875 27.1875 C 3.55745 26.1685 3.59893 25.66335 3.6875 24.59375 C 3.7326 24.66375 3.7674 24.6785 3.8125 24.75 C 3.8571 26.9282 3.86023 28.05355 3.90625 30.28125 C 4.04005 29.54005 4.11269 29.14055 4.25 28.34375 C 4.3412 27.52855 4.37583 27.101 4.46875 26.25 C 4.56165 26.5583 4.62513 26.743 4.71875 27.0625 L 4.71875 26.5 C 4.76455 25.9182 4.79735 25.62455 4.84375 25.03125 C 4.89095 25.11025 4.89104 25.13795 4.9375 25.21875 L 4.9375 25.78125 C 4.9843 27.59825 5.01573 28.5241 5.0625 30.375 C 5.1572 29.8142 5.21782 29.5221 5.3125 28.9375 C 5.3601 29.0335 5.35839 29.091 5.40625 29.1875 C 5.45485 29.2065 5.48341 29.20075 5.53125 29.21875 C 5.57955 28.13265 5.60801 27.6064 5.65625 26.5 C 5.70385 26.588 5.73271 26.62985 5.78125 26.71875 C 5.87815 28.98565 5.93447 30.12745 6.03125 32.46875 L 6.03125 31.875 C 6.08095 30.8397 6.10654 30.303 6.15625 29.25 C 6.35242 29.0707 6.45667 28.97735 6.65625 28.78125 C 6.70545 27.86115 6.73205 27.40305 6.78125 26.46875 C 6.88169 25.62765 6.93083 25.1797 7.03125 24.3125 L 7.28125 24.3125 C 7.33235 24.4015 7.35514 24.4717 7.40625 24.5625 C 7.5088 27.5806 7.55358 29.0872 7.65625 32.1875 L 7.65625 31.53125 C 7.75915 30.85235 7.80395 30.5115 7.90625 29.8125 C 8.01021 30.2071 8.08354 30.4097 8.1875 30.8125 L 8.1875 30.34375 C 8.2396 30.26775 8.25985 30.23385 8.3125 30.15625 C 8.41693 31.57905 8.45748 32.2932 8.5625 33.75 L 8.5625 33.03125 C 8.6154 32.58235 8.63465 32.36045 8.6875 31.90625 C 8.7404 32.01915 8.79111 32.0727 8.84375 32.1875 L 8.84375 32.6875 C 9.0028 30.8458 9.05818 29.9087 9.21875 28 C 9.37851 28.8007 9.4623 29.20585 9.625 30.03125 L 9.625 29.28125 C 9.73153 29.10685 9.79736 29.02245 9.90625 28.84375 C 9.96025 28.85375 9.9773 28.865 10.03125 28.875 C 10.195 29.0046 10.27387 29.0557 10.4375 29.1875 L 10.4375 28.9375 C 10.54769 27.74 10.60799 27.12645 10.71875 25.90625 C 10.77245 26.01205 10.78843 26.0806 10.84375 26.1875 C 10.89915 29.3779 10.94401 30.9682 11 34.1875 C 11.10948 34.4313 11.17024 34.5658 11.28125 34.8125 C 11.33685 32.7475 11.34926 31.7079 11.40625 29.625 C 11.51808 28.5982 11.57532 28.07725 11.6875 27.03125 C 11.744 27.14195 11.78725 27.2014 11.84375 27.3125 C 11.89975 27.3225 11.91226 27.3075 11.96875 27.3125 L 11.96875 26.78125 C 12.02505 26.67985 12.06851 26.63385 12.125 26.53125 C 12.1822 26.64205 12.19314 26.7007 12.25 26.8125 L 12.25 33.5 C 12.36265 33.9592 12.41767 34.19155 12.53125 34.65625 L 12.53125 32.5 C 12.70075 32.3229 12.79748 32.2465 12.96875 32.0625 C 13.0841 29.3542 13.13477 27.96585 13.25 25.21875 C 13.3071 25.33055 13.34769 25.41895 13.40625 25.53125 L 13.40625 27.4375 C 13.5216 30.3173 13.57274 31.7695 13.6875 34.6875 L 13.6875 33.875 C 13.7454 33.1097 13.78581 32.708 13.84375 31.9375 C 14.01713 31.5218 14.07438 31.33105 14.25 30.90625 C 14.36534 29.23475 14.44645 28.38 14.5625 26.6875 C 14.6212 26.6875 14.62876 26.6775 14.6875 26.6875 C 14.7453 26.804 14.78552 26.8824 14.84375 27 C 14.90235 26.8893 14.94176 26.83035 15 26.71875 C 15.0586 26.83645 15.09762 26.8817 15.15625 27 L 15.15625 27.59375 C 15.27418 30.35135 15.31944 31.7144 15.4375 34.5 L 15.4375 33.65625 C 15.55461 32.17915 15.60128 31.4304 15.71875 29.9375 C 15.89694 30.3022 16.00919 30.47425 16.1875 30.84375 L 16.1875 31.71875 C 16.30579 33.48265 16.34963 34.37695 16.46875 36.15625 C 16.52735 33.23855 16.5652 31.77435 16.625 28.84375 C 16.74376 30.37805 16.78643 31.1407 16.90625 32.6875 L 16.90625 30.9375 C 17.02595 30.5955 17.09823 30.408 17.21875 30.0625 C 17.33821 32.3217 17.41037 33.474 17.53125 35.75 L 17.53125 34.84375 C 17.59165 34.37645 17.59585 34.1561 17.65625 33.6875 C 17.8361 31.3271 17.94423 30.1367 18.125 27.75 C 18.24517 28.5936 18.28502 28.99565 18.40625 29.84375 C 18.52771 30.33165 18.59752 30.60335 18.71875 31.09375 C 18.8395 31.94625 18.91038 32.36255 19.03125 33.21875 C 19.03125 33.09795 19.03125 33.02685 19.03125 32.90625 C 19.09125 32.79005 19.12709 32.7413 19.1875 32.625 C 19.30943 31.304 19.3467 30.6419 19.46875 29.3125 C 19.59068 28.5895 19.65861 28.2267 19.78125 27.5 C 19.84125 27.6237 19.87604 27.6885 19.9375 27.8125 C 20.05884 27.5724 20.12854 27.46035 20.25 27.21875 C 20.3119 27.34205 20.34484 27.3767 20.40625 27.5 C 20.46765 30.3127 20.50143 31.7449 20.5625 34.5625 L 20.5625 32.71875 C 20.7454 32.23935 20.81793 31.9831 21 31.5 L 21 27.84375 C 21.1231 27.60105 21.18951 27.46275 21.3125 27.21875 C 21.3738 27.34285 21.40677 27.40785 21.46875 27.53125 C 21.59091 30.36205 21.65874 31.788 21.78125 34.625 L 21.78125 33.6875 C 21.90376 33.4461 21.97111 33.33715 22.09375 33.09375 C 22.15495 33.09375 22.15758 33.09375 22.21875 33.09375 C 22.34127 30.63145 22.40862 29.4051 22.53125 26.9375 C 22.65411 27.3092 22.72112 27.5034 22.84375 27.875 L 22.84375 27.25 C 22.90535 27.1274 22.93882 27.0609 23 26.9375 C 23.0613 27.0612 23.09427 27.126 23.15625 27.25 L 23.15625 35.90625 C 23.27923 36.27875 23.34529 36.47125 23.46875 36.84375 L 23.46875 35.90625 C 23.52945 35.53555 23.56384 35.33905 23.625 34.96875 C 23.80872 33.23875 23.87854 32.38715 24.0625 30.65625 C 24.18478 31.02725 24.25248 31.22305 24.375 31.59375 L 24.375 30.65625 C 24.4369 30.53245 24.46979 30.46715 24.53125 30.34375 C 24.65377 32.93935 24.72123 34.2191 24.84375 36.8125 C 24.90455 36.6877 24.93883 36.6247 25 36.5 L 25 30.9375 C 25.12299 30.442 25.18928 30.21415 25.3125 29.71875 L 25.46875 29.71875 C 25.5915 29.22255 25.65873 28.96375 25.78125 28.46875 C 25.84235 28.59105 25.84498 28.65905 25.90625 28.78125 L 25.90625 36.78125 C 26.02901 36.77125 26.09577 36.78625 26.21875 36.78125 L 26.21875 34.625 C 26.34126 34.2501 26.40873 34.0615 26.53125 33.6875 C 26.59265 31.9628 26.62593 31.0965 26.6875 29.375 C 26.7489 29.4963 26.78244 29.5669 26.84375 29.6875 C 26.90455 29.6875 26.93963 29.6875 27 29.6875 L 27 28.75 C 27.0614 28.3807 27.09494 28.21255 27.15625 27.84375 L 27.28125 27.84375 C 27.34205 27.96445 27.37622 28.0042 27.4375 28.125 C 27.55978 30.5681 27.62724 31.78545 27.75 34.21875 C 27.8111 34.09175 27.84585 34.03325 27.90625 33.90625 L 27.90625 33.3125 C 27.96715 30.2598 28.00122 28.7339 28.0625 25.6875 C 28.1224 25.8087 28.15776 25.84795 28.21875 25.96875 C 28.28015 25.84645 28.31412 25.8097 28.375 25.6875 L 28.5 25.6875 C 28.62182 28.2346 28.69092 29.49805 28.8125 32.03125 L 28.8125 31.125 C 28.8739 30.879 28.90697 30.7454 28.96875 30.5 C 29.08961 32.9096 29.15967 34.1056 29.28125 36.5 C 29.40142 34.7979 29.44139 33.9428 29.5625 32.25 C 29.68337 31.0384 29.7553 30.4538 29.875 29.25 C 29.99611 30.4395 30.06662 31.03765 30.1875 32.21875 C 30.3079 33.87685 30.3487 34.69835 30.46875 36.34375 C 30.52915 36.33375 30.5657 36.3215 30.625 36.3125 C 30.82364 32.3557 31.0187 28.3931 31.21875 24.4375 L 31.375 24.4375 C 31.4354 24.554 31.47164 24.60255 31.53125 24.71875 C 31.59115 25.30385 31.6276 25.6052 31.6875 26.1875 C 31.7469 29.107 31.75286 30.56295 31.8125 33.46875 C 31.9908 32.04295 32.10481 31.3444 32.28125 29.9375 C 32.39966 32.3566 32.44503 33.5441 32.5625 35.9375 L 32.5625 35.09375 C 32.6212 34.39125 32.66005 34.04335 32.71875 33.34375 C 32.83621 32.51995 32.88277 32.09705 33 31.28125 C 33.0594 31.38735 33.09772 31.4567 33.15625 31.5625 L 33.15625 32.6875 C 33.33175 32.9988 33.41907 33.16495 33.59375 33.46875 C 33.71097 34.34985 33.75859 34.78735 33.875 35.65625 C 33.933 35.64125 33.97301 35.64 34.03125 35.625 L 34.03125 32.8125 C 34.1473 32.1193 34.19668 31.77855 34.3125 31.09375 C 34.3708 31.19555 34.41151 31.24345 34.46875 31.34375 C 34.52705 31.22335 34.53679 31.15135 34.59375 31.03125 L 34.59375 30.5 C 34.70933 29.7091 34.76035 29.31075 34.875 28.53125 C 34.984411 30.500839 35.084071 31.554834 35.1875 33.40625 C 35.2441 31.43315 35.25541 30.42825 35.3125 28.46875 C 35.3701 28.45875 35.41118 28.47475 35.46875 28.46875 C 35.52535 28.56985 35.5362 28.61865 35.59375 28.71875 L 35.59375 32.21875 C 35.70593 33.37745 35.76187 33.95445 35.875 35.09375 C 35.8991 34.45935 35.9164 33.8666 35.9375 33.3125 C 36.0639 30.0909 36.16837 28.00985 36.3125 24.40625 C 36.3688 24.51175 36.3813 24.55175 36.4375 24.65625 C 36.54849 27.06995 36.60798 28.28385 36.71875 30.65625 L 36.71875 30.125 C 36.77435 30.0099 36.81921 29.95775 36.875 29.84375 C 36.9296 29.93675 36.94518 29.9705 37 30.0625 C 37 31.9208 37 32.86035 37 34.71875 C 37.11077 34.67975 37.17154 34.664 37.28125 34.625 L 37.28125 33.84375 C 37.33705 32.90415 37.35094 32.4306 37.40625 31.5 C 37.57047 28.7081 37.64945 27.3383 37.8125 24.625 C 37.8676 24.724 37.91433 24.7772 37.96875 24.875 C 38.07799 28.4661 38.11162 30.233 38.21875 33.75 C 38.32658 32.919 38.3924 32.53365 38.5 31.71875 C 38.6076 28.84975 38.67435 27.40135 38.78125 24.59375 C 38.83395 24.68975 38.8528 24.74945 38.90625 24.84375 L 38.90625 27 C 39.01361 27.8521 39.04982 28.2925 39.15625 29.125 L 39.15625 28.875 C 39.20825 27.5321 39.25976 26.85845 39.3125 25.53125 C 39.52382 25.89475 39.60435 26.0929 39.8125 26.4375 C 39.8643 29.2919 39.9172 30.6826 39.96875 33.5 C 40.12381 33.428 40.18928 33.41825 40.34375 33.34375 L 40.34375 29.5 C 40.44583 29.2005 40.49237 29.07325 40.59375 28.78125 C 40.64515 28.85625 40.66727 28.89405 40.71875 28.96875 L 40.71875 33.125 C 40.97224 32.9975 41.09484 32.9458 41.34375 32.8125 L 41.34375 32.1875 C 41.39375 32.0772 41.41894 32.01555 41.46875 31.90625 C 41.51835 31.88225 41.54444 31.86775 41.59375 31.84375 L 41.59375 31.21875 C 41.64305 30.94525 41.66961 30.80145 41.71875 30.53125 C 41.81765 30.82235 41.87078 30.9714 41.96875 31.25 C 42.06605 30.3855 42.12149 29.9628 42.21875 29.125 C 42.26735 29.189 42.29511 29.22035 42.34375 29.28125 L 42.34375 31.46875 C 42.53698 31.60445 42.62279 31.66615 42.8125 31.78125 L 42.8125 31.21875 C 42.86 31.11545 42.89044 31.0397 42.9375 30.9375 C 42.9842 29.8459 43.01573 29.3215 43.0625 28.25 C 43.1571 28.067 43.18833 27.95845 43.28125 27.78125 C 43.32805 27.76625 43.35828 27.764 43.40625 27.75 L 43.40625 27.21875 C 43.45145 26.98645 43.45381 26.8529 43.5 26.625 C 43.592 26.7487 43.65779 26.8207 43.75 26.9375 L 43.75 26.40625 C 43.7959 26.18285 43.79827 26.06185 43.84375 25.84375 C 43.88945 25.90575 43.92375 25.9388 43.96875 26 C 44.01445 28.076 44.04943 29.0953 44.09375 31.125 C 44.22884 30.8925 44.27375 30.788 44.40625 30.5625 L 44.40625 30.0625 C 44.45025 28.3079 44.48809 27.43265 44.53125 25.71875 C 44.62025 26.16175 44.6626 26.3917 44.75 26.8125 C 44.75 26.6201 44.75 26.5041 44.75 26.3125 C 44.7936 26.2365 44.7999 26.1994 44.84375 26.125 C 44.88735 26.178 44.9259 26.1995 44.96875 26.25 C 45.00575 27.360755 45.029566 28.050435 45.0625 29 C 45.1051 28.6037 45.14465 28.41725 45.1875 28.03125 C 45.2727 27.25805 45.32179 26.88975 45.40625 26.15625 C 45.53288 26.77065 45.59425 27.0664 45.71875 27.625 L 45.71875 27.46875 C 45.80135 26.40785 45.82485 25.90605 45.90625 24.90625 C 45.94785 24.95625 45.95961 24.98415 46 25.03125 C 46.0411 25.02125 46.0847 25.005 46.125 25 L 46.125 24.875 C 46.1661 24.816 46.17747 24.77655 46.21875 24.71875 C 46.25755 24.76675 46.2719 24.79835 46.3125 24.84375 C 46.3524 26.07345 46.36705 26.6883 46.40625 27.875 C 46.44685 27.849 46.4601 27.80925 46.5 27.78125 L 46.5 27.40625 C 46.61722 27.13435 46.69703 27.0023 46.8125 26.75 C 46.816182 26.788537 46.808971 26.807049 46.8125 26.84375 C 46.928105 25.909156 47 24.965875 47 24 C 47 23.281564 46.970702 22.576621 46.90625 21.875 C 46.7909 22.0091 46.74246 22.06255 46.625 22.21875 C 46.547 21.70455 46.48495 21.45495 46.40625 20.90625 L 46.40625 21.03125 C 46.32655 21.95055 46.29804 22.41845 46.21875 23.40625 C 46.13815 23.18895 46.08199 23.07455 46 22.84375 L 46 23.125 C 45.9596 23.173 45.94664 23.1999 45.90625 23.25 C 45.86515 23.19 45.85358 23.15525 45.8125 23.09375 L 45.8125 22.40625 C 45.7316 22.16405 45.67633 22.03675 45.59375 21.78125 L 45.59375 22.21875 C 45.55205 22.43855 45.54155 22.5238 45.5 22.75 C 45.4583 22.685 45.44874 22.66085 45.40625 22.59375 C 45.36435 22.05325 45.3241 21.77325 45.28125 21.21875 C 45.15391 21.17275 45.09832 21.1698 44.96875 21.125 L 44.96875 21.59375 C 44.92585 21.70675 44.8873 21.7591 44.84375 21.875 C 44.75775 21.853 44.74341 21.8345 44.65625 21.8125 L 44.65625 22.125 C 44.61225 22.181 44.57605 22.22405 44.53125 22.28125 C 44.48765 22.20725 44.4503 22.16925 44.40625 22.09375 L 44.40625 19.78125 C 44.27363 18.72545 44.22884 18.15535 44.09375 17.03125 L 44.09375 17.5625 C 44.00375 19.2925 43.96568 20.16065 43.875 21.96875 C 43.7848 21.59995 43.71722 21.41495 43.625 21.03125 C 43.625 21.24665 43.625 21.37915 43.625 21.59375 C 43.5795 21.65575 43.5459 21.6871 43.5 21.75 C 43.408 21.5141 43.37464 21.3695 43.28125 21.125 C 43.23485 21.187 43.20252 21.249 43.15625 21.3125 C 43.10945 21.2285 43.10976 21.18035 43.0625 21.09375 L 43.0625 18.625 C 42.92213 18.1861 42.83105 17.9585 42.6875 17.5 L 42.6875 18.09375 C 42.6407 18.45945 42.61006 18.6265 42.5625 19 C 42.4664 18.4952 42.44078 18.23885 42.34375 17.71875 L 42.34375 17.9375 C 42.29515 19.0309 42.26739 19.5748 42.21875 20.6875 C 42.17015 20.5965 42.14196 20.56185 42.09375 20.46875 L 42.09375 19.03125 C 41.99675 18.67445 41.94219 18.4916 41.84375 18.125 L 41.84375 18.5625 C 41.79485 18.6275 41.76766 18.65255 41.71875 18.71875 C 41.66965 18.61875 41.64309 18.56985 41.59375 18.46875 L 41.59375 18.03125 C 41.39617 17.70495 41.29426 17.55695 41.09375 17.21875 C 40.99332 16.31695 40.94536 15.8634 40.84375 14.9375 C 40.74331 16.5472 40.69583 17.3423 40.59375 19 C 40.54345 18.987 40.52013 18.98275 40.46875 18.96875 C 40.41755 18.86615 40.39493 18.82285 40.34375 18.71875 L 40.34375 15.34375 C 40.24073 15.02775 40.19641 14.8845 40.09375 14.5625 C 40.04195 14.6295 40.02083 14.65035 39.96875 14.71875 C 39.91715 17.44515 39.86348 18.83155 39.8125 21.59375 C 39.60353 22.12275 39.52382 22.3806 39.3125 22.9375 C 39.20655 22.0818 39.13626 21.65625 39.03125 20.78125 L 39.03125 21.5 C 38.92529 22.2538 38.88849 22.63545 38.78125 23.40625 C 38.72755 23.30825 38.67965 23.25535 38.625 23.15625 C 38.5727 20.81955 38.55373 19.64275 38.5 17.28125 C 38.3924 16.86085 38.32658 16.64655 38.21875 16.21875 C 38.16485 17.98135 38.14807 18.87525 38.09375 20.65625 C 37.98521 21.83395 37.9208 22.4223 37.8125 23.625 C 37.7579 23.5238 37.74162 23.4772 37.6875 23.375 C 37.57732 20.5488 37.51737 19.1309 37.40625 16.25 C 37.29654 15.1009 37.23577 14.51335 37.125 13.34375 C 37.0704 13.42775 37.05552 13.4784 37 13.5625 C 36.9444 15.8157 36.92959 16.94585 36.875 19.21875 C 36.8192 19.20875 36.77434 19.1965 36.71875 19.1875 C 36.55194 21.0372 36.48023 21.9769 36.3125 23.875 C 36.2556 23.7697 36.21241 23.70065 36.15625 23.59375 C 36.09985 20.94415 36.08815 19.63945 36.03125 16.96875 C 36.00525 16.91275 35.9595 16.8575 35.9375 16.8125 C 35.8717 16.664 35.83458 16.52615 35.75 16.34375 L 35.75 16.625 C 35.63664 18.1031 35.58162 18.84255 35.46875 20.34375 C 35.41115 20.33375 35.37006 20.34875 35.3125 20.34375 C 35.19844 18.92265 35.14649 18.1914 35.03125 16.75 L 35.03125 17.59375 C 34.97465 18.23925 34.93196 18.56715 34.875 19.21875 C 34.64652 19.08155 34.54309 19.0129 34.3125 18.875 C 34.2547 18.9794 34.21451 19.0199 34.15625 19.125 C 34.09795 19.0074 34.08841 18.96175 34.03125 18.84375 C 33.97822 16.598845 33.923676 15.260441 33.875 13.1875 C 33.70115 14.4938 33.61229 15.1679 33.4375 16.5 C 33.3792 16.3777 33.33858 16.31 33.28125 16.1875 C 33.16449 16.7376 33.1177 17.0056 33 17.5625 C 32.88277 17.091 32.83621 16.88235 32.71875 16.40625 C 32.60105 15.70075 32.52395 15.3371 32.40625 14.625 C 32.34685 16.2321 32.34089 17.04095 32.28125 18.65625 C 32.16261 17.83545 32.08833 17.42265 31.96875 16.59375 C 31.90955 16.58375 31.87142 16.5685 31.8125 16.5625 L 31.8125 17.4375 C 31.7528 19.1803 31.74693 20.0612 31.6875 21.8125 C 31.56838 22.7433 31.49458 23.21735 31.375 24.15625 L 31.21875 24.15625 C 31.15815 24.03925 31.1228 23.96185 31.0625 23.84375 L 31.0625 23.5625 C 31.0028 21.7933 30.99781 20.9011 30.9375 19.125 C 30.75896 17.8132 30.64906 17.17015 30.46875 15.84375 C 30.40905 15.95625 30.40376 16.012 30.34375 16.125 C 30.22358 15.2801 30.1513 14.8507 30.03125 14 C 29.97065 16.3834 29.9354 17.57675 29.875 19.96875 C 29.8151 19.96875 29.77945 19.9475 29.71875 19.9375 L 29.5625 19.65625 C 29.5021 17.61135 29.4982 16.58245 29.4375 14.53125 C 29.31639 13.43655 29.2454 12.88135 29.125 11.78125 C 29.0636 14.42895 29.02845 15.75025 28.96875 18.40625 C 28.84694 18.39625 28.77736 18.41125 28.65625 18.40625 C 28.59485 20.10005 28.56157 20.9265 28.5 22.625 C 28.31757 22.5014 28.24586 22.4368 28.0625 22.3125 C 27.94093 19.7536 27.87111 18.47725 27.75 15.90625 C 27.6886 15.90625 27.65532 15.90725 27.59375 15.90625 L 27.59375 20.1875 C 27.47099 20.5513 27.40318 20.72845 27.28125 21.09375 C 27.09789 20.84565 27.02747 20.71775 26.84375 20.46875 L 26.84375 20.78125 C 26.78235 20.90305 26.749 20.97195 26.6875 21.09375 C 26.6261 20.97015 26.59283 20.90465 26.53125 20.78125 C 26.46985 18.19735 26.43627 16.8989 26.375 14.3125 C 26.25202 13.0769 26.18502 12.45655 26.0625 11.21875 C 26.0011 11.33885 25.96785 11.41045 25.90625 11.53125 C 25.84505 15.34955 25.81108 17.2401 25.75 21.0625 C 25.6886 20.9388 25.68657 20.8736 25.625 20.75 L 25.625 20.15625 C 25.44081 19.90745 25.34021 19.78005 25.15625 19.53125 C 25.0335 16.19425 24.9665 14.5269 24.84375 11.1875 C 24.78265 11.3095 24.74878 11.34615 24.6875 11.46875 C 24.6254 14.55865 24.59262 16.12765 24.53125 19.21875 C 24.40827 18.84725 24.34268 18.65225 24.21875 18.28125 C 24.15755 18.40495 24.12411 18.47005 24.0625 18.59375 C 24.0013 18.47005 23.99897 18.40535 23.9375 18.28125 C 23.81474 16.92135 23.74798 16.235 23.625 14.875 C 23.50178 13.392 23.43573 12.669 23.3125 11.1875 z "
       transform="translate(0,1004.3622)"
       id="path3039" />
    <path
       sodipodi:type="arc"
       style="fill:none;stroke:#000080;stroke-width:1.80399357999999999;stroke-miterlimit:4;stroke-dasharray:none"
       id="path3913"
       sodipodi:cx="20.815079"
       sodipodi:cy="27.323227"
       sodipodi:rx="20.745926"
       sodipodi:ry="20.745926"
       d="m 41.561005,27.323227 a 20.745926,20.745926 0 1 1 -41.49185217,0 20.745926,20.745926 0 1 1 41.49185217,0 z"
       transform="matrix(1.1086514,0,0,1.1086514,0.92333362,998.07027)" />
    <g
       id="g4162"
       transform="matrix(0.04578584,0,0,0.04578584,24.628502,980.78169)">
      <g
         transform="translate(-319.45325,513.74269)"
         id="layer1-7">
        <g
           transform="translate(0,3.9398)"
           id="g4871">
          <g
             transform="matrix(1.4601,0,0,1.4601,-321.54,-136.87)"
             id="g2534">
            <path
               d="m 638.08,91.915 c -44.68,25.105 -369.77,526.64 -297.06,491.54 71.18,-29.06 115.27,8.33 118.56,4 9.16,-12.11 170.51,-313.05 178.5,-495.54 z"
               style="fill:url(#radialGradient4171);fill-rule:evenodd"
               id="path2391"
               inkscape:connector-curvature="0" />
            <path
               d="m 635.77,93.247 c -9.53,-10.91 -319.4,494.84 -316.07,490.21 -14.65,-7.99 -26.28,-19.98 -7.63,-61.28 18.65,-41.29 253.1,-412.95 323.7,-428.93 z"
               style="fill:url(#radialGradient4173);fill-rule:evenodd"
               id="path2387"
               inkscape:connector-curvature="0" />
            <path
               d="m 221.13,809.92 c 2.66,-98.58 337.02,-654.35 415.62,-718 0,-0.005 -251.77,342.35 -375.66,667.38 -31.11,4.61 -25.01,33.33 -37.06,50.28 l -2.9,0.34 z"
               style="fill:url(#linearGradient4175);fill-rule:evenodd"
               id="path2385"
               inkscape:connector-curvature="0" />
            <path
               d="M 270.19,677.3 C 366.6,477.65 576.59,140.64 636.75,91.92 c 0,-0.005 -242.37,329.56 -368.52,648.98 l 1.96,-63.6 z"
               style="opacity:0.86325001;fill:url(#linearGradient4177);fill-rule:evenodd"
               id="path2651"
               inkscape:connector-curvature="0" />
          </g>
        </g>
      </g>
    </g>
  </g>
</svg>
