<?xml version="1.0" encoding="UTF-8" standalone="no"?>
<!-- Created with Inkscape (http://www.inkscape.org/) -->

<svg
   xmlns:dc="http://purl.org/dc/elements/1.1/"
   xmlns:cc="http://creativecommons.org/ns#"
   xmlns:rdf="http://www.w3.org/1999/02/22-rdf-syntax-ns#"
   xmlns:svg="http://www.w3.org/2000/svg"
   xmlns="http://www.w3.org/2000/svg"
   xmlns:sodipodi="http://sodipodi.sourceforge.net/DTD/sodipodi-0.dtd"
   xmlns:inkscape="http://www.inkscape.org/namespaces/inkscape"
   width="32"
   height="32"
   id="svg13977"
   version="1.1"
   inkscape:version="0.48.3.1 r9886"
   sodipodi:docname="slow.svg">
  <defs
     id="defs13979" />
  <sodipodi:namedview
     id="base"
     pagecolor="#ffffff"
     bordercolor="#666666"
     borderopacity="1.0"
     inkscape:pageopacity="0.0"
     inkscape:pageshadow="2"
     inkscape:zoom="11.481949"
     inkscape:cx="31.864855"
     inkscape:cy="26.594435"
     inkscape:document-units="px"
     inkscape:current-layer="layer1"
     showgrid="false"
     inkscape:window-width="1920"
     inkscape:window-height="1028"
     inkscape:window-x="0"
     inkscape:window-y="0"
     inkscape:window-maximized="1" />
  <metadata
     id="metadata13982">
    <rdf:RDF>
      <cc:Work
         rdf:about="">
        <dc:format>image/svg+xml</dc:format>
        <dc:type
           rdf:resource="http://purl.org/dc/dcmitype/StillImage" />
        <dc:title />
      </cc:Work>
    </rdf:RDF>
  </metadata>
  <g
     inkscape:label="Layer 1"
     inkscape:groupmode="layer"
     id="layer1"
     transform="translate(0,-1020.3622)">
    <g
       style="font-size:40px;font-style:normal;font-variant:normal;font-weight:normal;font-stretch:normal;line-height:125%;letter-spacing:0px;word-spacing:0px;fill:#333333;fill-opacity:1;stroke:none;font-family:Droid Serif;-inkscape-font-specification:Droid Serif"
       id="text13993"
       transform="matrix(0.75884679,0,0,0.75884679,-2.212323,255.99285)">
      <path
         d="m 6.3393751,1032.8102 c 1.6213278,0 2.4319936,-0.5547 2.432,-1.664 -6.4e-6,-0.3413 -0.074673,-0.6293 -0.224,-0.864 -0.1386727,-0.2453 -0.3306725,-0.4533 -0.576,-0.624 -0.2453387,-0.1813 -0.528005,-0.336 -0.848,-0.464 -0.3093377,-0.128 -0.6400041,-0.256 -0.992,-0.384 -0.4053367,-0.1387 -0.7893363,-0.2933 -1.152,-0.464 -0.3626689,-0.1813 -0.6773352,-0.3893 -0.944,-0.624 -0.266668,-0.2453 -0.4800012,-0.5333 -0.64,-0.864 -0.1493342,-0.3307 -0.2240008,-0.7307 -0.224,-1.2 -8e-7,-0.9707 0.3306656,-1.728 0.992,-2.272 0.6613309,-0.544 1.57333,-0.816 2.736,-0.816 0.6719948,0 1.2799942,0.075 1.824,0.224 0.5546598,0.1387 0.9599927,0.2933 1.216,0.464 l -0.496,1.264 c -0.2240068,-0.1387 -0.5600065,-0.272 -1.008,-0.4 -0.4373389,-0.1387 -0.9493384,-0.208 -1.536,-0.208 -0.2986709,0 -0.5760039,0.032 -0.832,0.096 -0.2560034,0.064 -0.4800032,0.16 -0.672,0.288 -0.1920028,0.128 -0.3466693,0.2933 -0.464,0.496 -0.1066691,0.192 -0.1600024,0.4213 -0.16,0.688 -2.4e-6,0.2987 0.058664,0.5493 0.176,0.752 0.1173307,0.2027 0.2826638,0.384 0.496,0.544 0.2133301,0.1493 0.4586632,0.288 0.736,0.416 0.2879959,0.128 0.6026623,0.256 0.944,0.384 0.4799948,0.192 0.9173277,0.384 1.312,0.576 0.4053269,0.192 0.7519932,0.4213 1.04,0.688 0.2986593,0.2667 0.5279929,0.5867 0.6879999,0.96 0.159992,0.3627 0.239992,0.8053 0.24,1.328 -8e-6,0.9707 -0.357341,1.7173 -1.0719999,2.24 -0.7040062,0.5227 -1.7013386,0.784 -2.992,0.784 -0.4373368,0 -0.8426698,-0.032 -1.216,-0.096 -0.362669,-0.053 -0.688002,-0.1173 -0.976,-0.192 -0.2880015,-0.085 -0.5386679,-0.1707 -0.752,-0.256 -0.2026675,-0.096 -0.3626673,-0.176 -0.48,-0.24 l 0.464,-1.28 c 0.2453321,0.1387 0.6186651,0.2933 1.12,0.464 0.5013307,0.1707 1.1146635,0.256 1.84,0.256"
         style="font-size:16px;fill:#333333;font-family:Ubuntu;-inkscape-font-specification:Ubuntu"
         id="path13998"
         inkscape:connector-curvature="0" />
      <path
         d="m 18.935375,1032.5702 0,1.344 -6.672,0 0,-11.088 1.552,0 0,9.744 5.12,0"
         style="font-size:16px;fill:#333333;font-family:Ubuntu;-inkscape-font-specification:Ubuntu"
         id="path14000"
         inkscape:connector-curvature="0" />
      <path
         d="m 19.409125,1028.3622 c -1e-6,-0.9493 0.138666,-1.7867 0.416,-2.512 0.287998,-0.7253 0.671998,-1.328 1.152,-1.808 0.490664,-0.4907 1.055997,-0.8587 1.696,-1.104 0.650662,-0.2453 1.338661,-0.368 2.064,-0.368 0.71466,0 1.386659,0.1227 2.016,0.368 0.639991,0.2453 1.199991,0.6133 1.68,1.104 0.47999,0.48 0.858656,1.0827 1.136,1.808 0.287989,0.7253 0.431989,1.5627 0.432,2.512 -1.1e-5,0.9493 -0.144011,1.7867 -0.432,2.512 -0.277344,0.7253 -0.65601,1.3333 -1.136,1.824 -0.480009,0.48 -1.040009,0.8427 -1.68,1.088 -0.629341,0.2453 -1.30134,0.368 -2.016,0.368 -0.725339,0 -1.413338,-0.1227 -2.064,-0.368 -0.640003,-0.2453 -1.205336,-0.608 -1.696,-1.088 -0.480002,-0.4907 -0.864002,-1.0987 -1.152,-1.824 -0.277334,-0.7253 -0.416001,-1.5627 -0.416,-2.512 m 1.632,0 c -2e-6,0.672 0.08533,1.2853 0.256,1.84 0.170664,0.544 0.410664,1.008 0.72,1.392 0.319996,0.384 0.703996,0.6827 1.152,0.896 0.458662,0.2027 0.970661,0.304 1.536,0.304 0.565327,0 1.071993,-0.1013 1.52,-0.304 0.447992,-0.2133 0.826658,-0.512 1.136,-0.896 0.319991,-0.384 0.565324,-0.848 0.736,-1.392 0.170657,-0.5547 0.25599,-1.168 0.256,-1.84 -10e-6,-0.672 -0.08534,-1.28 -0.256,-1.824 -0.170676,-0.5547 -0.416009,-1.024 -0.736,-1.408 -0.309342,-0.384 -0.688008,-0.6773 -1.136,-0.88 -0.448007,-0.2133 -0.954673,-0.32 -1.52,-0.32 -0.565339,0 -1.077338,0.1067 -1.536,0.32 -0.448004,0.2027 -0.832004,0.496 -1.152,0.88 -0.309336,0.384 -0.549336,0.8533 -0.72,1.408 -0.170669,0.544 -0.256002,1.152 -0.256,1.824"
         style="font-size:16px;fill:#333333;font-family:Ubuntu;-inkscape-font-specification:Ubuntu"
         id="path14002"
         inkscape:connector-curvature="0" />
      <path
         d="m 38.108625,1026.3942 c -0.448007,1.4293 -0.90134,2.752 -1.36,3.968 -0.458672,1.216 -0.917338,2.4 -1.376,3.552 l -1.552,0 c -0.565336,-1.632 -1.066669,-3.3547 -1.504,-5.168 -0.426668,-1.8133 -0.826667,-3.7867 -1.2,-5.92 l 1.632,0 c 0.149331,0.832 0.303998,1.664 0.464,2.496 0.159997,0.832 0.325331,1.6427 0.496,2.432 0.170664,0.7787 0.34133,1.5253 0.512,2.24 0.170663,0.7147 0.346663,1.376 0.528,1.984 0.426662,-1.12 0.879995,-2.3467 1.36,-3.68 0.479994,-1.344 0.927994,-2.7307 1.344,-4.16 l 1.344,0 c 0.415992,1.4293 0.869324,2.816 1.36,4.16 0.490657,1.3333 0.949323,2.56 1.376,3.68 0.170656,-0.5973 0.341322,-1.2533 0.512,-1.968 0.170655,-0.7147 0.335988,-1.4613 0.496,-2.24 0.170655,-0.7893 0.335988,-1.6 0.496,-2.432 0.159988,-0.8427 0.314654,-1.68 0.464,-2.512 l 1.584,0 c -0.384014,2.1333 -0.79468,4.1067 -1.232,5.92 -0.426679,1.8133 -0.917345,3.536 -1.472,5.168 l -1.552,0 c -0.469343,-1.152 -0.928009,-2.336 -1.376,-3.552 -0.448008,-1.216 -0.896008,-2.5387 -1.344,-3.968"
         style="font-size:16px;fill:#333333;font-family:Ubuntu;-inkscape-font-specification:Ubuntu"
         id="path14004"
         inkscape:connector-curvature="0" />
    </g>
  </g>
</svg>
