<?xml version="1.0" encoding="UTF-8" standalone="no"?>
<!-- Created with Inkscape (http://www.inkscape.org/) -->

<svg
   xmlns:dc="http://purl.org/dc/elements/1.1/"
   xmlns:cc="http://creativecommons.org/ns#"
   xmlns:rdf="http://www.w3.org/1999/02/22-rdf-syntax-ns#"
   xmlns:svg="http://www.w3.org/2000/svg"
   xmlns="http://www.w3.org/2000/svg"
   version="1.1"
   width="16"
   height="16"
   id="svg2">
  <defs
     id="defs4" />
  <metadata
     id="metadata7">
    <rdf:RDF>
      <cc:Work
         rdf:about="">
        <dc:format>image/svg+xml</dc:format>
        <dc:type
           rdf:resource="http://purl.org/dc/dcmitype/StillImage" />
        <dc:title></dc:title>
      </cc:Work>
    </rdf:RDF>
  </metadata>
  <g
     transform="translate(0,-1036.3622)"
     id="layer1">
    <path
       d="m 1.6741411,1049.5925 c -0.15751,-0.034 -0.20312,-0.08 -0.20312,-0.2047 0,-0.1476 0.038,-0.2229 0.26514,-0.5244 0.20616,-0.2737 0.41348,-0.6795 0.44101,-0.8632 l 0.0193,-0.1289 -0.16742,-0.081 c -0.0921,-0.045 -0.2703,-0.1028 -0.39603,-0.1289 -0.303,-0.063 -0.92944998,-0.062 -1.24520998,0 -0.13472,0.027 -0.2801,0.057 -0.32306,0.065 -0.11402,0.022 0.38789,-0.4646 0.68759,-0.6668 0.53318998,-0.3597 0.76652998,-0.4363 1.79677998,-0.59 4.25274,-0.6345 7.41044,-1.9548 8.5149199,-3.5601 0.15861,-0.2305 0.32262,-0.6089 0.54223,-1.251 0.44827,-1.3107 0.67586,-1.7649 1.07497,-2.1456 0.50935,-0.4858 1.15323,-0.5297 1.92268,-0.131 0.17044,0.088 0.30795,0.1989 0.55591,0.447 0.29465,0.2948 0.34663,0.3643 0.49192,0.6577 0.23139,0.4674 0.29771,0.7368 0.29999,1.2188 0.003,0.5778 -0.11558,0.9136 -0.44266,1.2565 -0.31719,0.3326 -0.7277,0.482 -1.24887,0.4548 -0.24234,-0.013 -0.32105,-0.031 -0.48821,-0.1132 -0.11241,-0.055 -0.25626,-0.1599 -0.32997,-0.2399 l -0.13069,-0.1418 -0.19557,0.1717 c -0.24612,0.2161 -0.66405,0.692 -0.91716,1.0445 -0.73812,1.0278 -1.04576,2.1668 -0.86649,3.208 0.0645,0.3744 0.23052,0.9327 0.43802,1.4725 0.0933,0.2428 0.16961,0.4719 0.16961,0.5093 0,0.1107 -0.13,0.2114 -0.32529,0.252 -0.11637,0.024 -0.41886,0.033 -0.87177,0.027 -0.66692,-0.01 -0.69942,-0.013 -0.8457899,-0.088 -0.28215,-0.1441 -0.56285,-0.5362 -0.74152,-1.0356 l -0.0971,-0.2714 -0.22335,0.076 c -0.3042,0.1039 -0.8785,0.215 -1.44209,0.279 -0.37341,0.042 -0.62765,0.05 -1.25,0.035 -0.76513,-0.017 -0.95234,-0.034 -1.54035,-0.1355 -0.15969,-0.028 -0.29505,-0.045 -0.3008,-0.038 -0.006,0.01 -0.1208,0.1734 -0.25567,0.3711 -0.30937,0.4534 -0.57678,0.732 -0.74693,0.7782 -0.11938,0.032 -1.486,0.044 -1.625,0.013 z m 13.5789499,-7.917 c 0.32337,-0.165 0.3216,-0.6231 -0.003,-0.7886 -0.19574,-0.1 -0.43862,-0.041 -0.5693,0.137 -0.15056,0.2055 -0.0779,0.5114 0.1529,0.6437 0.15131,0.087 0.26086,0.089 0.41945,0.01 z m -13.3564999,4.2806 c -0.23978,-0.038 -0.38412,-0.1122 -0.50028,-0.2579 -0.1275,-0.1599 -0.15213,-0.4477 -0.0547,-0.6387 0.059,-0.1157 0.29517,-0.3523 0.35156,-0.3523 0.0129,0 -0.0102,-0.06 -0.0512,-0.1336 -0.11489,-0.2055 -0.16999,-0.4963 -0.1705,-0.8998 -5.2e-4,-0.4094 0.0309,-0.6232 0.14433,-0.9823 0.30223,-0.9566 1.06866,-1.792 2.09675,-2.2855 0.5826,-0.2796 1.4611,-0.5225 2.19596,-0.6072 0.3808,-0.044 1.0225,-0.021 1.3741,0.049 0.90108,0.1793 1.63504,0.6621 2.12909,1.4005 0.10137,0.1516 0.18431,0.2874 0.18431,0.3018 0,0.014 0.0268,0.019 0.0595,0.011 0.11424,-0.03 0.3944999,0.052 0.5136499,0.1504 0.30684,0.2529 0.35027,0.7539 0.0998,1.1507 -0.20584,0.3261 -0.9858599,0.8761 -1.9957799,1.4073 -1.75709,0.9242 -4.19248,1.6399 -5.78646,1.7005 -0.22344,0.01 -0.48896,0 -0.59005,-0.013 z"
       id="path2996"
       style="fill:#1a1a1a" />
  </g>
</svg>
