/* XPM */
static char * OpenScribe32_xpm[] = {
"32 32 592 2",
"  	c None",
". 	c #000080",
"+ 	c #030382",
"@ 	c #010181",
"# 	c #020282",
"$ 	c #C5C4BA",
"% 	c #000081",
"& 	c #131390",
"* 	c #2A2AA3",
"= 	c #3434AC",
"- 	c #3D3DB5",
"; 	c #3A3AB4",
"> 	c #2D2DAA",
", 	c #2222A1",
"' 	c #0E0E8F",
") 	c #0A0A85",
"! 	c #B9B9B3",
"~ 	c #B9B9AF",
"{ 	c #0C0C89",
"] 	c #4646B5",
"^ 	c #6B6BD2",
"/ 	c #7676DB",
"( 	c #7373DA",
"_ 	c #6F6FD9",
": 	c #6A6AD8",
"< 	c #6666D7",
"[ 	c #6161D6",
"} 	c #5D5DD4",
"| 	c #5858D3",
"1 	c #4A4AC9",
"2 	c #2E2EAD",
"3 	c #8383A3",
"4 	c #B7B5A6",
"5 	c #9898A8",
"6 	c #030383",
"7 	c #060684",
"8 	c #4A4AB4",
"9 	c #8282DD",
"0 	c #8484DF",
"a 	c #8181DE",
"b 	c #7E7EDD",
"c 	c #7B7BDC",
"d 	c #7272DA",
"e 	c #6E6ED9",
"f 	c #6969D8",
"g 	c #6464D6",
"h 	c #5F5FD5",
"i 	c #5A5AD4",
"j 	c #8888BC",
"k 	c #CAC7AA",
"l 	c #A5A5A2",
"m 	c #6A6A9C",
"n 	c #13138D",
"o 	c #7B7BD3",
"p 	c #9090E2",
"q 	c #8E8EE2",
"r 	c #8C8CE1",
"s 	c #8A8AE0",
"t 	c #8686E0",
"u 	c #8282DE",
"v 	c #7A7ADC",
"w 	c #7575DB",
"x 	c #7070DA",
"y 	c #6B6BD8",
"z 	c #7B7BC8",
"A 	c #C3C2A9",
"B 	c #B0AF9E",
"C 	c #9E9E9E",
"D 	c #6C6CBA",
"E 	c #09098B",
"F 	c #010182",
"G 	c #222297",
"H 	c #8D8DDD",
"I 	c #9898E4",
"J 	c #9797E4",
"K 	c #9696E4",
"L 	c #9494E3",
"M 	c #9292E2",
"N 	c #8A8AE1",
"O 	c #8686DF",
"P 	c #7C7CDD",
"Q 	c #7777DC",
"R 	c #7878D3",
"S 	c #A8A8A3",
"T 	c #C7C6A4",
"U 	c #929292",
"V 	c #6565C9",
"W 	c #4646CB",
"X 	c #101092",
"Y 	c #14148D",
"Z 	c #8F8FDE",
"` 	c #9C9CE5",
" .	c #9E9EE6",
"..	c #9F9FE6",
"+.	c #9A9AE5",
"@.	c #9292E3",
"#.	c #8E8EE1",
"$.	c #8989E0",
"%.	c #7B7BDB",
"&.	c #9595A7",
"*.	c #D5D3AB",
"=.	c #8C8C89",
"-.	c #919191",
";.	c #9F9FA1",
">.	c #5B5BD2",
",.	c #5151D1",
"'.	c #8181D5",
").	c #9D9DE5",
"!.	c #A1A1E6",
"~.	c #A4A4E7",
"{.	c #A5A5E8",
"].	c #A6A6E8",
"^.	c #A2A2E7",
"/.	c #9595E3",
"(.	c #918EDF",
"_.	c #8D84D6",
":.	c #897ED3",
"<.	c #9595B8",
"[.	c #BDBCA2",
"}.	c #A2A28F",
"|.	c #848484",
"1.	c #939393",
"2.	c #9191B2",
"3.	c #5C5CD4",
"4.	c #5656D3",
"5.	c #5050D1",
"6.	c #3F3FC4",
"7.	c #5050B6",
"8.	c #9999E4",
"9.	c #A3A3E7",
"0.	c #A7A7E8",
"a.	c #ABABE9",
"b.	c #ADADEA",
"c.	c #ACABE9",
"d.	c #ABA7E5",
"e.	c #A1A1E7",
"f.	c #9C87CD",
"g.	c #9A7CC1",
"h.	c #A085AE",
"i.	c #999992",
"j.	c #C4C19E",
"k.	c #777777",
"l.	c #868686",
"m.	c #989898",
"n.	c #7F7FC8",
"o.	c #5B5BD4",
"p.	c #5555D3",
"q.	c #4F4FD1",
"r.	c #2828AB",
"s.	c #0D0D89",
"t.	c #8D8DDF",
"u.	c #9D9CE4",
"v.	c #AD9CD7",
"w.	c #AEAEEA",
"x.	c #B2B2EB",
"y.	c #B6AADF",
"z.	c #B990BD",
"A.	c #A8A8E8",
"B.	c #A97FB8",
"C.	c #A682B6",
"D.	c #969395",
"E.	c #CBC9A3",
"F.	c #72726F",
"G.	c #797979",
"H.	c #8C8C8C",
"I.	c #9D9BA1",
"J.	c #6E6ED8",
"K.	c #7759B8",
"L.	c #6060D5",
"M.	c #5D58CF",
"N.	c #5454D2",
"O.	c #4C4CCE",
"P.	c #070788",
"Q.	c #4D4DB6",
"R.	c #8F8FE2",
"S.	c #A881BC",
"T.	c #AF92CA",
"U.	c #ADACE8",
"V.	c #B4AFE5",
"W.	c #BDA4D1",
"X.	c #C583A4",
"Y.	c #B5B0E6",
"Z.	c #A9A5E3",
"`.	c #B476A5",
" +	c #A495A3",
".+	c #B0AF97",
"++	c #A4A388",
"@+	c #6D6D6D",
"#+	c #808080",
"$+	c #949494",
"%+	c #A089A5",
"&+	c #7171DA",
"*+	c #8955A4",
"=+	c #7E4CA4",
"-+	c #6452C1",
";+	c #5252D2",
">+	c #2B2BAD",
",+	c #7575D4",
"'+	c #9191E2",
")+	c #B7638F",
"!+	c #A097DB",
"~+	c #B088BE",
"{+	c #B689BA",
"]+	c #B59CD0",
"^+	c #C287AE",
"/+	c #C77FA0",
"(+	c #BD9DCA",
"_+	c #B6A2D6",
":+	c #B397CD",
"<+	c #B8849C",
"[+	c #90908E",
"}+	c #D3CFA3",
"|+	c #646464",
"1+	c #8A8A8A",
"2+	c #B75C79",
"3+	c #8A63B6",
"4+	c #995194",
"5+	c #7C5CBA",
"6+	c #874FA0",
"7+	c #894897",
"8+	c #5955CF",
"9+	c #4A46C4",
"0+	c #19138B",
"a+	c #877AD2",
"b+	c #8D80D3",
"c+	c #8D8ADE",
"d+	c #C65272",
"e+	c #A682C1",
"f+	c #B07FB5",
"g+	c #C66586",
"h+	c #BF7AA3",
"i+	c #CB6987",
"j+	c #CF6580",
"k+	c #C482A8",
"l+	c #C282A9",
"m+	c #C17FA3",
"n+	c #9D9597",
"o+	c #C9C5A1",
"p+	c #8F8E7D",
"q+	c #717171",
"r+	c #828282",
"s+	c #959595",
"t+	c #AF999C",
"u+	c #D23A4E",
"v+	c #AF5082",
"w+	c #A94F86",
"x+	c #8A5AAC",
"y+	c #944F98",
"z+	c #D33042",
"A+	c #984388",
"B+	c #6A4CB7",
"C+	c #080481",
"D+	c #3F248C",
"E+	c #9569B4",
"F+	c #A367A7",
"G+	c #9E72B7",
"H+	c #E7363C",
"I+	c #D6495D",
"J+	c #B275AA",
"K+	c #D05772",
"L+	c #CE5D7A",
"M+	c #E3424D",
"N+	c #E3424C",
"O+	c #DA5466",
"P+	c #C77599",
"Q+	c #B78E96",
"R+	c #9E9D92",
"S+	c #CFCCA0",
"T+	c #737373",
"U+	c #7E7E7E",
"V+	c #8F8F8F",
"W+	c #A1A1A1",
"X+	c #CA767E",
"Y+	c #EE3030",
"Z+	c #E33740",
"`+	c #C3486C",
" @	c #9959A1",
".@	c #A44F8C",
"+@	c #BA406B",
"@@	c #804BA6",
"#@	c #2020A0",
"$@	c #0A0480",
"%@	c #692371",
"&@	c #B75586",
"*@	c #C4527A",
"=@	c #C25780",
"-@	c #F53838",
";@	c #D05876",
">@	c #E24A59",
",@	c #D9556C",
"'@	c #DB676D",
")@	c #999999",
"!@	c #DBD6A8",
"~@	c #898981",
"{@	c #8B8B8B",
"]@	c #9C9C9C",
"^@	c #AFAAAB",
"/@	c #E54B55",
"(@	c #D44862",
"_@	c #B0548B",
":@	c #C24A73",
"<@	c #EC3A42",
"[@	c #BC4470",
"}@	c #442590",
"|@	c #070382",
"1@	c #040280",
"2@	c #98285A",
"3@	c #F44247",
"4@	c #F84143",
"5@	c #DA4F68",
"6@	c #FB4040",
"7@	c #F84244",
"8@	c #FA4141",
"9@	c #F94545",
"0@	c #B39B9B",
"a@	c #BAB69F",
"b@	c #C2C09C",
"c@	c #838383",
"d@	c #A9A9A9",
"e@	c #CA8C96",
"f@	c #FA4142",
"g@	c #E94755",
"h@	c #E3485B",
"i@	c #F94142",
"j@	c #8B2966",
"k@	c #030280",
"l@	c #97295D",
"m@	c #F4444A",
"n@	c #FA4344",
"o@	c #DC4D66",
"p@	c #FC4242",
"q@	c #FB4343",
"r@	c #D68282",
"s@	c #9F9F9E",
"t@	c #E0DAA9",
"u@	c #8F8F8D",
"v@	c #8E8E8E",
"w@	c #A5A5A5",
"x@	c #B7B1B1",
"y@	c #E75965",
"z@	c #F94446",
"A@	c #F4454B",
"B@	c #EC4753",
"C@	c #8E2A65",
"D@	c #6D206B",
"E@	c #D5425B",
"F@	c #DE4154",
"G@	c #BB4E7C",
"H@	c #F63939",
"I@	c #ED3E45",
"J@	c #E34453",
"K@	c #F23C3F",
"L@	c #F53A3A",
"M@	c #ED5454",
"N@	c #ADABAB",
"O@	c #CDC4A3",
"P@	c #B7B69C",
"Q@	c #9A9A9A",
"R@	c #B2B2B2",
"S@	c #D7898A",
"T@	c #DA4C62",
"U@	c #E8414C",
"V@	c #E04354",
"W@	c #CB4A6C",
"X@	c #D5455E",
"Y@	c #F5393A",
"Z@	c #C94366",
"`@	c #59237D",
" #	c #0B0480",
".#	c #3D1B84",
"+#	c #914A97",
"@#	c #AC467C",
"##	c #A74B86",
"$#	c #EE3132",
"%#	c #ED3233",
"&#	c #B74D7C",
"*#	c #C74769",
"=#	c #C7496B",
"-#	c #E43A44",
";#	c #C6A0A0",
">#	c #ACABA6",
",#	c #DCD9A9",
"'#	c #A6A6A6",
")#	c #B1B1B1",
"!#	c #C0BEBF",
"~#	c #E3474D",
"{#	c #CD4965",
"]#	c #DE3C4A",
"^#	c #EF3131",
"/#	c #EF3132",
"(#	c #CF425D",
"_#	c #AF4F84",
":#	c #B5497A",
"<#	c #DA3849",
"[#	c #874EA3",
"}#	c #2E1F94",
"|#	c #040381",
"1#	c #110D8B",
"2#	c #684CB9",
"3#	c #804AA3",
"4#	c #7951B0",
"5#	c #E32B30",
"6#	c #974E95",
"7#	c #97529A",
"8#	c #B64571",
"9#	c #B74773",
"0#	c #D4606A",
"a#	c #B5B5B5",
"b#	c #D9CFA8",
"c#	c #B9B7A3",
"d#	c #AAAAAA",
"e#	c #BEBEBE",
"f#	c #B9A0B8",
"g#	c #D93644",
"h#	c #C24669",
"i#	c #D73646",
"j#	c #E92929",
"k#	c #C73E5C",
"l#	c #BD4268",
"m#	c #985399",
"n#	c #984F95",
"o#	c #DA303D",
"p#	c #B53D69",
"q#	c #7B4EAB",
"r#	c #0F0F8F",
"s#	c #4242C7",
"t#	c #544FCC",
"u#	c #5C51C8",
"v#	c #AA386B",
"w#	c #5F5CD3",
"x#	c #874FA1",
"y#	c #A94075",
"z#	c #A04885",
"A#	c #B9859C",
"B#	c #BCB2AC",
"C#	c #DDD9A6",
"D#	c #ADADAD",
"E#	c #AFAFAF",
"F#	c #BFBFBF",
"G#	c #C8C6C7",
"H#	c #9B6FB0",
"I#	c #B7446E",
"J#	c #B44571",
"K#	c #C43855",
"L#	c #DF2427",
"M#	c #A8497F",
"N#	c #965197",
"O#	c #8955A7",
"P#	c #8A50A1",
"Q#	c #C03251",
"R#	c #94448A",
"S#	c #5B49B8",
"T#	c #2626AC",
"U#	c #4848CF",
"V#	c #4E4DCF",
"W#	c #6B46AE",
"X#	c #7A4AA6",
"Y#	c #894593",
"Z#	c #7456B9",
"`#	c #9A6CA3",
" $	c #DDD3AB",
".$	c #BEB9A7",
"+$	c #9D90B9",
"@$	c #A77EA2",
"#$	c #B58AA2",
"$$	c #BDB4C2",
"%$	c #B99AAF",
"&$	c #8461B7",
"*$	c #965297",
"=$	c #9E4B88",
"-$	c #9D4986",
";$	c #B4375E",
">$	c #904F99",
",$	c #8553A7",
"'$	c #7858B8",
")$	c #824EA3",
"!$	c #953F82",
"~$	c #5D58D0",
"{$	c #3030AF",
"]$	c #050588",
"^$	c #3F3FCB",
"/$	c #4545CE",
"($	c #4A49CE",
"_$	c #4E4ED1",
":$	c #6C45AC",
"<$	c #664CB9",
"[$	c #5D56CD",
"}$	c #9178B2",
"|$	c #D4CF9E",
"1$	c #6363D5",
"2$	c #6563D5",
"3$	c #6F5FC7",
"4$	c #93468A",
"5$	c #7E58B1",
"6$	c #924B91",
"7$	c #7363C8",
"8$	c #8256AC",
"9$	c #894F9D",
"0$	c #785BBA",
"a$	c #864FA0",
"b$	c #7559BC",
"c$	c #7A53AF",
"d$	c #625ED1",
"e$	c #6658C7",
"f$	c #5B59D2",
"g$	c #5353D0",
"h$	c #080888",
"i$	c #1F1FA9",
"j$	c #3D3DCC",
"k$	c #4242CD",
"l$	c #4646CE",
"m$	c #4B49CD",
"n$	c #4D4DD0",
"o$	c #D7D3AB",
"p$	c #9996AC",
"q$	c #5E5ED5",
"r$	c #7F479B",
"s$	c #7255B8",
"t$	c #7751AF",
"u$	c #6363D6",
"v$	c #6E5AC1",
"w$	c #7653B2",
"x$	c #6560D0",
"y$	c #6D57BF",
"z$	c #605ED3",
"A$	c #615CD0",
"B$	c #5959D3",
"C$	c #2D2DAC",
"D$	c #020283",
"E$	c #2E2EBF",
"F$	c #3A3ACB",
"G$	c #3E3ECC",
"H$	c #8B88C0",
"I$	c #CECA96",
"J$	c #5353CF",
"K$	c #5757D3",
"L$	c #5E53C7",
"M$	c #5F56CA",
"N$	c #6652BF",
"O$	c #5C5CD3",
"P$	c #5E5AD0",
"Q$	c #4545C6",
"R$	c #07078A",
"S$	c #3131C5",
"T$	c #3636CA",
"U$	c #DAD6A6",
"V$	c #9796A3",
"W$	c #4747CF",
"X$	c #4A4AD0",
"Y$	c #4C4CD0",
"Z$	c #5353D2",
"`$	c #5555D2",
" %	c #4A4ACC",
".%	c #0A0A8B",
"+%	c #0C0C91",
"@%	c #3535CA",
"#%	c #7370BE",
"$%	c #C6C28F",
"%%	c #4747C6",
"&%	c #3F3FCD",
"*%	c #4444CE",
"=%	c #4949CF",
"-%	c #111192",
";%	c #2D2DBF",
">%	c #A5A29D",
",%	c #939194",
"'%	c #3737CB",
")%	c #3C3CCC",
"!%	c #4141CD",
"~%	c #4242CE",
"{%	c #4646CF",
"]%	c #3C3CC2",
"^%	c #19187D",
"/%	c #A09E74",
"(%	c #4343BB",
"_%	c #3737CA",
":%	c #3939CB",
"<%	c #3B3BCB",
"[%	c #4040CD",
"}%	c #3E3ECB",
"|%	c #2323AA",
"1%	c #4B4956",
"2%	c #474568",
"3%	c #050587",
"4%	c #1E1EAA",
"5%	c #2F2FC2",
"6%	c #3232C2",
"7%	c #2020AA",
"8%	c #09098D",
"9%	c #15159D",
"0%	c #1B1BA5",
"a%	c #2020AD",
"                        . + + @ @ # + .         $               ",
"                  % # . & * = - ; > , ' . @ ) ! ~               ",
"              . @ { ] ^ / ( _ : < [ } | 1 2 3 4 5               ",
"            6 7 8 9 0 a b c / d e f g h i j k l m @             ",
"          + n o p q r s t u b v w x y < z A B C D E F           ",
"        + G H I J K L M q N O a P Q d R S T U C V W X F         ",
"      6 Y Z `  ... .` +.K @.#.$.0 b %.&.*.=.-.;.>.,.W E @       ",
"    . 7 '.).!.~.{.].~.^. .+./.(._.:.<.[.}.|.1.2.3.4.5.6.6 .     ",
"    @ 7.8. .9.0.a.b.c.d.].e.` f.g.h.i.j.k.l.m.n.[ o.p.q.r.@     ",
"  % s.t.I u.9.v.w.x.y.z.b.A.^.B.C.D.E.F.G.H.I.J.K.L.M.N.O.P.%   ",
"  # Q.R./.S.e.T.U.V.W.X.Y.w.Z.`. +.+++@+#+$+%+&+*+g =+-+;+>+@   ",
"  . ,+N '+)+!+~+{+]+^+/+(+_+:+<+[+}+|+k.1+C 2+3+4+5+6+7+8+9+.   ",
". 0+a+b+c+d+e+f+g+h+i+j+k+l+m+n+o+p+q+r+s+t+u+v+w+x+y+z+A+B+' . ",
"C+D+E+F+G+H+I+J+K+L+M+N+O+P+Q+R+S+T+U+V+W+X+Y+Z+`+ @.@Y++@@@#@+ ",
"$@%@&@*@=@-@-@;@>@,@-@-@-@'@)@!@~@U+{@]@^@/@-@-@(@_@:@-@<@[@}@|@",
"1@2@3@4@5@6@6@6@7@8@6@6@9@0@a@b@c@{@m.d@e@f@6@6@g@h@i@6@6@6@j@1@",
"k@l@m@n@o@p@p@p@q@p@p@p@r@s@t@u@v@m.w@x@y@z@p@p@A@B@p@p@p@p@C@1@",
"$@D@E@F@G@H@H@I@J@K@L@M@N@O@P@$+Q@w@R@S@T@U@H@H@V@W@X@H@Y@Z@`@ #",
"$@.#+#@###$#%#&#*#=#-#;#>#,#]@C '#)#!#~#{#]#^#/#(#_#:#^#<#[#}#|#",
". 1#2#3#4#5#6#7#8#9#0#a#b#c#w@d#R@e#f#g#h#i#j#k#l#m#n#o#p#q#r#. ",
"  . s#t#u#v#w#x#y#z#A#B#C#D#E#a#F#G#H#I#J#K#L#M#N#O#P#Q#R#S#.   ",
"  @ T#U#V#W#4.X#Y#Z#`# $.$+$@$#$$$%$&$*$=$-$;$>$,$'$)$!$~${$F   ",
"  % ]$^$/$($_$:$<$[$}$|$1$2$3$4$5$6$7$8$9$0$a$b$c$d$e$f$g$h$%   ",
"    @ i$j$k$l$m$n$,.o$p$i 3.q$r$s$t$u$v$w$x$y$z$A$o.B$4.C$@     ",
"    . D$E$F$G$k$/$H$I$J$;+N.K$L$M$N$3.O$P$3.o.i | 4.N.Q$6 .     ",
"      @ R$S$T$F$G$U$V$W$X$Y$q.,.;+Z$N.`$`$`$N.Z$;+,. %.%@       ",
"        F +%S$@%#%$%%%&%k$*%W$=%X$Y$n$n$_$_$_$n$Y$W -%F         ",
"          F R$;%>%,%@%'%F$)%&%!%~%*%/${%W$W$W${%]%E F           ",
"            @ ^%/%(%@%@%@%@%_%:%<%)%G$G$&%[%}%|%6 @             ",
"              1%2%3%4%5%@%@%@%@%@%@%T$_%6%7%3%@ .               ",
"                  % @ . 8%9%0%a%a%0%9%8%. @ %                   ",
"                        . F F @ @ F F .                         "};
