/* XPM */
static char * OpenScribe16_minimal_xpm[] = {
"16 16 74 1",
" 	c None",
".	c #0A0A90",
"+	c #0B0B93",
"@	c #101099",
"#	c #1414A1",
"$	c #3A3ADD",
"%	c #4242E9",
"&	c #4141E8",
"*	c #4D4DD9",
"=	c #8A89A5",
"-	c #6262A1",
";	c #0B0B91",
">	c #2D2DC6",
",	c #3C3CE0",
"'	c #3939DB",
")	c #3737D8",
"!	c #3E3EDA",
"~	c #9191AA",
"{	c #989899",
"]	c #4242C4",
"^	c #4040E5",
"/	c #3333D2",
"(	c #2F2FCB",
"_	c #2D2DC8",
":	c #7979AF",
"<	c #85858C",
"[	c #91919F",
"}	c #3232CF",
"|	c #2B2BC4",
"1	c #2626BC",
"2	c #2323B8",
"3	c #5555B5",
"4	c #8D8D8A",
"5	c #808080",
"6	c #7272B7",
"7	c #1D1DAE",
"8	c #2828AB",
"9	c #9E9C95",
"0	c #75756F",
"a	c #8F8F8F",
"b	c #4545C1",
"c	c #1515A2",
"d	c #76759F",
"e	c #9D9C89",
"f	c #8C8CA7",
"g	c #1919A8",
"h	c #4242A4",
"i	c #B3B29D",
"j	c #828281",
"k	c #9A9A9A",
"l	c #5757B0",
"m	c #2121AA",
"n	c #A2A2A6",
"o	c #ABA998",
"p	c #989898",
"q	c #9F9FB1",
"r	c #1C1CA9",
"s	c #7575BA",
"t	c #BDBBA8",
"u	c #A2A2A2",
"v	c #B2B2B2",
"w	c #5D5DB1",
"x	c #9898B7",
"y	c #B5B4A6",
"z	c #9B9BB4",
"A	c #ACACC3",
"B	c #2121AF",
"C	c #B0ADAD",
"D	c #8482C7",
"E	c #7C7CAB",
"F	c #ACA9AE",
"G	c #3E3EDD",
"H	c #1A1A81",
"I	c #4F4E87",
"     .+@@+.     ",
"    #$%&&%*=-   ",
"  ;>&,'))!~{];  ",
"  >^'/(__:<[^>  ",
" #&'}|123456'&# ",
".$,/|27890ab/,$.",
"+%'(17cde5f1('%+",
"@&)_2ghijkl2_)&@",
"@&)_2mnopqr2_)&@",
"+%'(1stuvw71('%+",
".$,/|xyzAB2|/,$.",
" #&'}C1221|}'&# ",
"  >^DE(__(/'^>  ",
"  ;>FG'))',&>;  ",
"   HI$%&&%$#    ",
"     .+@@+.     "};
